<?xml version="1.0" encoding="UTF-8" standalone="no"?>
<svg
   xmlns:dc="http://purl.org/dc/elements/1.1/"
   xmlns:cc="http://creativecommons.org/ns#"
   xmlns:rdf="http://www.w3.org/1999/02/22-rdf-syntax-ns#"
   xmlns:svg="http://www.w3.org/2000/svg"
   xmlns="http://www.w3.org/2000/svg"
   xmlns:sodipodi="http://sodipodi.sourceforge.net/DTD/sodipodi-0.dtd"
   xmlns:inkscape="http://www.inkscape.org/namespaces/inkscape"
   height="16px"
   id="Layer_1"
   style="enable-background:new 0 0 16 16;"
   version="1.1"
   viewBox="0 0 16 16"
   width="16px"
   x="0px"
   xml:space="preserve"
   y="0px"
   inkscape:version="0.48.4 r9939"
   sodipodi:docname="reload.svg"
   inkscape:export-filename="reload.png"
   inkscape:export-xdpi="270"
   inkscape:export-ydpi="270"><metadata
     id="metadata9"><rdf:RDF><cc:Work
         rdf:about=""><dc:format>image/svg+xml</dc:format><dc:type
           rdf:resource="http://purl.org/dc/dcmitype/StillImage" /><dc:title></dc:title></cc:Work></rdf:RDF></metadata><defs
     id="defs7" /><sodipodi:namedview
     pagecolor="#ffffff"
     bordercolor="#666666"
     borderopacity="1"
     objecttolerance="10"
     gridtolerance="10"
     guidetolerance="10"
     inkscape:pageopacity="0"
     inkscape:pageshadow="2"
     inkscape:window-width="1311"
     inkscape:window-height="748"
     id="namedview5"
     showgrid="false"
     inkscape:zoom="14.75"
     inkscape:cx="8"
     inkscape:cy="8"
     inkscape:window-x="53"
     inkscape:window-y="-3"
     inkscape:window-maximized="1"
     inkscape:current-layer="Layer_1" /><path
     d="M14,8c-0.609,0-0.898,0.43-1,0.883C12.635,10.516,11.084,13,8,13c-0.757,0-1.473-0.172-2.114-0.474L6.414,12  C6.773,11.656,7,11.445,7,11c0-0.523-0.438-1-1-1H3c-0.609,0-1,0.492-1,1v3c0,0.541,0.428,1,1,1c0.484,0,0.688-0.273,1-0.594  l0.408-0.407C5.458,14.632,6.685,15,8,15c4.99,0,7-4.75,7-5.938C15,8.336,14.469,8,14,8z M3,7.117C3.365,5.485,4.916,3,8,3  c0.757,0,1.473,0.171,2.114,0.473L9.586,4C9.227,4.344,9,4.555,9,5c0,0.523,0.438,1,1,1h3c0.609,0,1-0.492,1-1V2  c0-0.541-0.428-1-1-1c-0.484,0-0.688,0.273-1,0.594l-0.408,0.407C10.542,1.368,9.315,1,8,1C3.01,1,1,5.75,1,6.938  C1,7.664,1.531,8,2,8C2.609,8,2.898,7.57,3,7.117z"
     id="path3"
     style="fill:#000000"
     inkscape:export-filename="reload.png"
     inkscape:export-xdpi="300"
     inkscape:export-ydpi="300" /></svg>